<svg width="512" height="512" viewBox="0 0 512 512" fill="none" xmlns="http://www.w3.org/2000/svg">
  <!-- Background circle -->
  <rect width="512" height="512" rx="115" fill="url(#bgGradient)"/>

  <!-- Shield outline -->
  <path d="M256 80C256 80 160 100 160 120V256C160 320 200 380 256 432C312 380 352 320 352 256V120C352 100 256 80 256 80Z"
        fill="white" opacity="0.15"/>

  <!-- Main shield -->
  <path d="M256 96C256 96 176 112 176 128V256C176 312 208 364 256 408C304 364 336 312 336 256V128C336 112 256 96 256 96Z"
        fill="white"/>

  <!-- Lock body -->
  <rect x="226" y="240" width="60" height="80" rx="8" fill="url(#lockGradient)"/>

  <!-- Lock shackle -->
  <path d="M236 240V216C236 204.954 244.954 196 256 196C267.046 196 276 204.954 276 216V240"
        stroke="url(#lockGradient)" stroke-width="12" stroke-linecap="round" fill="none"/>

  <!-- Lock keyhole -->
  <circle cx="256" cy="270" r="8" fill="white" opacity="0.9"/>
  <rect x="252" y="270" width="8" height="20" rx="2" fill="white" opacity="0.9"/>

  <!-- Checkmark accent -->
  <path d="M240 340L248 348L272 324" stroke="#10b981" stroke-width="8" stroke-linecap="round" stroke-linejoin="round"/>

  <!-- Gradients -->
  <defs>
    <linearGradient id="bgGradient" x1="0" y1="0" x2="512" y2="512" gradientUnits="userSpaceOnUse">
      <stop offset="0%" stop-color="#3b82f6"/>
      <stop offset="100%" stop-color="#2563eb"/>
    </linearGradient>
    <linearGradient id="lockGradient" x1="226" y1="196" x2="286" y2="320" gradientUnits="userSpaceOnUse">
      <stop offset="0%" stop-color="#3b82f6"/>
      <stop offset="100%" stop-color="#1d4ed8"/>
    </linearGradient>
  </defs>
</svg>
