<?xml version="1.0" encoding="UTF-8"?>
<svg xmlns="http://www.w3.org/2000/svg" width="200" height="51" fill="none">
  <ellipse cx="24.832" cy="25.013" fill="#05F" rx="24.832" ry="25.013"></ellipse>
  <path fill="#fff" fill-rule="evenodd" d="M12.385 13.114c-1.574.324-2.725 1.707-2.77 3.352-.163 6.06.863 20.566 12.828 24.783a7.26 7.26 0 0 0 4.826 0c11.965-4.217 12.99-18.723 12.827-24.783-.044-1.645-1.195-3.028-2.77-3.352-5.073-1.043-8.986-3.35-10.601-4.42-.557-.369-1.206-.75-1.87-.75-.662 0-1.311.381-1.868.75-1.615 1.07-5.528 3.377-10.602 4.42Z" clip-rule="evenodd"></path>
  <path fill="#2A2A4B" d="M32.774 23.73c0 .898-.721 1.627-1.61 1.627-.89 0-1.612-.729-1.612-1.628a1.62 1.62 0 0 1 1.611-1.627c.89 0 1.611.729 1.611 1.627ZM20.424 23.73a1.62 1.62 0 0 1-1.61 1.627c-.89 0-1.611-.729-1.611-1.628a1.62 1.62 0 0 1 1.61-1.627c.89 0 1.611.729 1.611 1.627Z"></path>
  <path fill="#fff" fill-rule="evenodd" d="M19.619 23.051c0 .225-.18.407-.403.407a.405.405 0 0 1-.402-.407c0-.224.18-.406.402-.406.223 0 .403.182.403.406ZM31.968 23.051c0 .225-.18.407-.402.407a.405.405 0 0 1-.403-.407c0-.224.18-.406.403-.406.222 0 .402.182.402.406Z" clip-rule="evenodd"></path>
  <path fill="#2A2A4B" d="M28.116 29.63c-.134 1.587-1.484 2.833-3.13 2.833s-2.996-1.247-3.13-2.833c-.012-.14.1-.26.243-.26h5.774c.143 0 .255.12.243.26Z"></path>
  <path fill="#fff" fill-rule="evenodd" d="M27.282 30.37H22.69a.42.42 0 0 1-.417-.421v-.14H27.7v.14a.42.42 0 0 1-.418.421ZM78.145 26.502c.736.976 1.103 2.17 1.103 3.581 0 2.41-.764 4.236-2.29 5.475-1.528 1.24-3.704 1.87-6.53 1.894h-9.673V12.385h8.716c3.02 0 5.31.583 6.871 1.748 1.561 1.165 2.342 2.872 2.342 5.121 0 1.229-.314 2.31-.94 3.246-.627.935-1.499 1.62-2.615 2.057 1.276.321 2.282.97 3.016 1.945Zm119.089 6.749c-.262-.299-.393-.792-.393-1.48v-9.297h3.152v-3.65h-3.152v-4.58h-4.94v4.58h-2.477v.3l2.477 3.35V32.51c.069 3.524 1.835 5.286 5.298 5.286.959 0 1.892-.13 2.801-.391V33.61a8.215 8.215 0 0 1-1.262.087c-.741 0-1.242-.149-1.504-.447ZM164.437 18.48c-2.222 0-3.994.832-5.315 2.496v-2.152h-4.803v18.628h4.937V25.559c0-1.692 1.361-3.064 3.041-3.064 1.681 0 3.042 1.372 3.042 3.064v1.648c.003.074.004.15.004.226v10.019h4.94V25.418c-.024-2.307-.513-4.04-1.47-5.2-.957-1.159-2.416-1.738-4.376-1.738Zm-18.159.344v2.22c.991-1.71 2.364-2.564 4.119-2.564.518 0 1.006.067 1.463.2v5.006a3.82 3.82 0 0 0-1.599-.35c-2.128 0-3.853 1.738-3.853 3.882v10.234h-4.932V18.824h4.802Zm-12.043 7.13c0-1.904-1.547-3.461-3.436-3.461s-3.436 1.557-3.436 3.46v.409h6.872v-.409Zm4.825 3.382v-2.403c0-4.65-3.776-8.453-8.392-8.453s-8.392 3.803-8.392 8.453v2.403c0 4.649 3.776 8.453 8.392 8.453 3.377 0 6.336-1.447 7.664-4.362l-3.793-1.91c-.609 1.13-2.052 2.235-3.74 2.235-1.889 0-3.435-1.558-3.435-3.46v-.566h11.687c.006-.13.009-.26.009-.39Zm45.646-3.383c0-1.903-1.546-3.46-3.436-3.46-1.889 0-3.435 1.557-3.435 3.46v.409h6.871v-.409Zm4.825 3.383v-2.403c0-4.65-3.776-8.453-8.392-8.453-4.615 0-8.392 3.803-8.392 8.453v2.403c0 4.649 3.777 8.453 8.392 8.453 3.377 0 6.337-1.447 7.664-4.362l-3.793-1.91c-.608 1.13-2.052 2.235-3.74 2.235-1.889 0-3.435-1.558-3.435-3.46v-.566h11.687c.006-.13.009-.26.009-.39Zm-115.41.696c0-2.296-1.18-3.461-3.539-3.495h-4.7v6.766h4.393c1.207 0 2.15-.29 2.828-.87.678-.58 1.017-1.38 1.017-2.401Zm-4.444-7.145h-3.795v-6.318h3.59c1.412 0 2.446.25 3.102.748.655.5.983 1.317.983 2.454 0 2.031-1.294 3.07-3.88 3.116Zm20.158-.394c1.89 0 3.436 1.557 3.436 3.46v.409H86.4v-.409c0-1.903 1.545-3.46 3.435-3.46Zm8.261 4.44v2.403c0 .13-.003.26-.01.39H86.4v.565c0 1.903 1.545 3.46 3.435 3.46 1.688 0 3.132-1.105 3.74-2.234l3.793 1.91c-1.328 2.915-4.287 4.362-7.664 4.362-4.616 0-8.392-3.804-8.392-8.453v-2.403c0-4.65 3.776-8.453 8.392-8.453s8.392 3.803 8.392 8.453Zm22.295-8.109h-3.159v-4.58h-4.94v4.58h-6.881v-4.58h-4.94v4.58h-2.478v.3l2.478 3.35V32.51c.068 3.524 1.834 5.286 5.298 5.286.959 0 1.892-.13 2.8-.391V33.61a8.201 8.201 0 0 1-1.261.087c-.741 0-1.243-.149-1.504-.447-.263-.299-.393-.792-.393-1.48v-9.297h6.881V32.51c.069 3.524 1.835 5.286 5.299 5.286.958 0 1.891-.13 2.8-.391V33.61a8.206 8.206 0 0 1-1.262.087c-.741 0-1.242-.149-1.504-.447-.262-.299-.393-.792-.393-1.48v-9.297h3.159v-3.65Z" clip-rule="evenodd"></path>
</svg>
