<svg width="18" height="18" viewBox="0 0 18 18" fill="none" xmlns="http://www.w3.org/2000/svg">
<path fill-rule="evenodd" clip-rule="evenodd" d="M9 0C13.9706 0 18 4.02944 18 9C18 13.9706 13.9706 18 9 18C4.02944 18 0 13.9706 0 9C0 4.02944 4.02944 0 9 0ZM9 2C5.13401 2 2 5.13401 2 9C2 12.866 5.13401 16 9 16C12.866 16 16 12.866 16 9C16 5.13401 12.866 2 9 2ZM11.0387 5C12.4364 5 13.4695 5.96212 13.4695 7.21797C13.4695 8.7067 12.1022 9.90171 10.5223 9.90171H5.84331C5.70139 10.1956 5.86354 10.4285 6.20778 10.4285H9.93486C10.5526 10.4285 11.0286 10.8638 11.0286 11.421C11.0286 12.059 10.411 12.616 9.71201 12.616H6.46104C5.39762 12.616 4.71904 12.0184 4.71904 11.1878C4.71904 10.9145 4.80012 10.5803 5.11408 9.90171H4L5.02281 7.71401H12.1426C12.3048 7.71401 12.4161 7.59262 12.4161 7.45085C12.4161 7.30908 12.3048 7.18754 12.1426 7.18754H6.38012L6.88635 6.10404C7.20032 5.4355 7.87889 5 8.61817 5H11.0387Z" fill="#001D2F"/>
</svg>
