<svg xmlns="http://www.w3.org/2000/svg" xmlns:xlink="http://www.w3.org/1999/xlink" viewBox="0 0 263.52 47.02"><defs><style>.cls-1{mask:url(#mask);filter:url(#luminosity-noclip-6);}.cls-10,.cls-2,.cls-4,.cls-6,.cls-8{mix-blend-mode:multiply;}.cls-2{fill:url(#linear-gradient);}.cls-3{mask:url(#mask-2);filter:url(#luminosity-noclip-7);}.cls-4{fill:url(#linear-gradient-2);}.cls-5,.cls-7{mask:url(#mask-3);}.cls-5{filter:url(#luminosity-noclip-8);}.cls-6{fill:url(#linear-gradient-3);}.cls-8{fill:url(#linear-gradient-4);}.cls-9{mask:url(#mask-5);filter:url(#luminosity-noclip-10);}.cls-10{fill:url(#linear-gradient-5);}.cls-11{isolation:isolate;}.cls-12{fill:url(#linear-gradient-6);}.cls-13{mask:url(#mask-6);}.cls-14,.cls-20,.cls-21,.cls-24{mix-blend-mode:soft-light;}.cls-14{fill:url(#linear-gradient-7);}.cls-15{fill:#ffa300;}.cls-16,.cls-31{opacity:0.2;}.cls-17,.cls-21{opacity:0.25;}.cls-18{fill:url(#linear-gradient-8);}.cls-19{mask:url(#mask-7);}.cls-20{fill:url(#linear-gradient-9);}.cls-22{mask:url(#mask-8);}.cls-23{fill:url(#linear-gradient-10);}.cls-24,.cls-30{opacity:0.5;}.cls-25{fill:url(#linear-gradient-11);}.cls-26{mask:url(#mask-10);}.cls-27{opacity:0.6;fill:url(#linear-gradient-12);}.cls-28,.cls-30,.cls-31{fill:#fff;}.cls-29{fill:#ffbc00;}.cls-32{filter:url(#luminosity-noclip-5);}.cls-33{filter:url(#luminosity-noclip-3);}.cls-34{filter:url(#luminosity-noclip-2);}.cls-35{filter:url(#luminosity-noclip);}</style><filter id="luminosity-noclip" x="7.83" y="-7836.65" width="21.8" height="32766" filterUnits="userSpaceOnUse" color-interpolation-filters="sRGB"><feFlood flood-color="#fff" result="bg"/><feBlend in="SourceGraphic" in2="bg"/></filter><mask id="mask" x="7.83" y="-7836.65" width="21.8" height="32766" maskUnits="userSpaceOnUse"><g class="cls-35"/></mask><linearGradient id="linear-gradient" x1="-17.62" y1="37.65" x2="-33.15" y2="62.2" gradientTransform="translate(36.53 -15.55) rotate(-8.92)" gradientUnits="userSpaceOnUse"><stop offset="0"/><stop offset="0.24" stop-color="#020202"/><stop offset="0.38" stop-color="#0b0b0b"/><stop offset="0.49" stop-color="#181818"/><stop offset="0.59" stop-color="#2c2c2c"/><stop offset="0.67" stop-color="#464646"/><stop offset="0.76" stop-color="#656565"/><stop offset="0.83" stop-color="#8b8b8b"/><stop offset="0.9" stop-color="#b6b6b6"/><stop offset="0.97" stop-color="#e6e6e6"/><stop offset="1" stop-color="#fff"/></linearGradient><filter id="luminosity-noclip-2" x="0.33" y="-7836.65" width="21.92" height="32766" filterUnits="userSpaceOnUse" color-interpolation-filters="sRGB"><feFlood flood-color="#fff" result="bg"/><feBlend in="SourceGraphic" in2="bg"/></filter><mask id="mask-2" x="0.33" y="-7836.65" width="21.92" height="32766" maskUnits="userSpaceOnUse"><g class="cls-34"/></mask><linearGradient id="linear-gradient-2" x1="-40.98" y1="20.22" x2="-16.29" y2="20.22" gradientTransform="translate(36.53 -15.55) rotate(-8.92)" gradientUnits="userSpaceOnUse"><stop offset="0"/><stop offset="1" stop-color="#fff"/></linearGradient><filter id="luminosity-noclip-3" x="0" y="-7836.65" width="29.94" height="32766" filterUnits="userSpaceOnUse" color-interpolation-filters="sRGB"><feFlood flood-color="#fff" result="bg"/><feBlend in="SourceGraphic" in2="bg"/></filter><mask id="mask-3" x="0" y="-7836.65" width="29.94" height="32766" maskUnits="userSpaceOnUse"><g class="cls-33"/></mask><linearGradient id="linear-gradient-3" x1="-41.44" y1="35.28" x2="-13.39" y2="35.28" gradientTransform="translate(36.53 -15.55) rotate(-8.92)" gradientUnits="userSpaceOnUse"><stop offset="0"/><stop offset="0.16" stop-color="#030303"/><stop offset="0.29" stop-color="#0d0d0d"/><stop offset="0.41" stop-color="#1e1e1e"/><stop offset="0.52" stop-color="#363636"/><stop offset="0.63" stop-color="#555"/><stop offset="0.74" stop-color="#7b7b7b"/><stop offset="0.84" stop-color="#a8a8a8"/><stop offset="0.94" stop-color="#dadada"/><stop offset="1" stop-color="#fff"/></linearGradient><linearGradient id="linear-gradient-4" x1="-41.44" y1="35.28" x2="-13.39" y2="35.28" gradientTransform="translate(36.53 -15.55) rotate(-8.92)" gradientUnits="userSpaceOnUse"><stop offset="0" stop-color="#fff"/><stop offset="0.14" stop-color="#c8c8c8"/><stop offset="0.32" stop-color="#8c8c8c"/><stop offset="0.48" stop-color="#5a5a5a"/><stop offset="0.64" stop-color="#333"/><stop offset="0.78" stop-color="#171717"/><stop offset="0.91" stop-color="#060606"/><stop offset="1"/></linearGradient><filter id="luminosity-noclip-5" x="0.73" y="-7836.65" width="26.88" height="32766" filterUnits="userSpaceOnUse" color-interpolation-filters="sRGB"><feFlood flood-color="#fff" result="bg"/><feBlend in="SourceGraphic" in2="bg"/></filter><mask id="mask-5" x="0.73" y="-7836.65" width="26.88" height="32766" maskUnits="userSpaceOnUse"><g class="cls-32"/></mask><linearGradient id="linear-gradient-5" x1="-41.44" y1="32.55" x2="-14.21" y2="32.55" gradientTransform="translate(36.53 -15.55) rotate(-8.92)" gradientUnits="userSpaceOnUse"><stop offset="0"/><stop offset="0.15" stop-color="#030303"/><stop offset="0.27" stop-color="#0e0e0e"/><stop offset="0.4" stop-color="#202020"/><stop offset="0.51" stop-color="#3a3a3a"/><stop offset="0.63" stop-color="#5a5a5a"/><stop offset="0.74" stop-color="#838383"/><stop offset="0.85" stop-color="#b2b2b2"/><stop offset="0.96" stop-color="#e8e8e8"/><stop offset="1" stop-color="#fff"/></linearGradient><linearGradient id="linear-gradient-6" x1="-40.91" y1="45.64" x2="-13.65" y2="45.64" gradientTransform="translate(36.53 -15.55) rotate(-8.92)" gradientUnits="userSpaceOnUse"><stop offset="0" stop-color="#ffdc00"/><stop offset="0.46" stop-color="#ffcb00"/><stop offset="1" stop-color="#ffb200"/></linearGradient><filter id="luminosity-noclip-6" x="4.94" y="21.89" width="24.69" height="26.8" filterUnits="userSpaceOnUse" color-interpolation-filters="sRGB"><feFlood flood-color="#fff" result="bg"/><feBlend in="SourceGraphic" in2="bg"/></filter><mask id="mask-6" x="4.94" y="21.89" width="24.69" height="26.8" maskUnits="userSpaceOnUse"><g class="cls-1"><polygon class="cls-2" points="19.67 21.95 29.63 28.86 29.63 28.86 19.59 21.89 7.83 48.68 8 48.53 19.67 21.95"/></g></mask><linearGradient id="linear-gradient-7" x1="-19.02" y1="36.76" x2="-34.35" y2="60.99" gradientTransform="translate(36.53 -15.55) rotate(-8.92)" gradientUnits="userSpaceOnUse"><stop offset="0" stop-color="#fff"/><stop offset="0.86" stop-color="#fff"/><stop offset="1" stop-color="#fff"/></linearGradient><linearGradient id="linear-gradient-8" x1="-40.98" y1="25.45" x2="-8.02" y2="25.45" gradientTransform="translate(36.53 -15.55) rotate(-8.92)" gradientUnits="userSpaceOnUse"><stop offset="0" stop-color="#ffad00"/><stop offset="0.35" stop-color="#ffb503"/><stop offset="0.9" stop-color="#ffcc0d"/><stop offset="1" stop-color="#ffd10f"/></linearGradient><filter id="luminosity-noclip-7" x="0.33" y="-1.4" width="30.52" height="20.49" filterUnits="userSpaceOnUse" color-interpolation-filters="sRGB"><feFlood flood-color="#fff" result="bg"/><feBlend in="SourceGraphic" in2="bg"/></filter><mask id="mask-7" x="0.33" y="-1.4" width="30.52" height="20.49" maskUnits="userSpaceOnUse"><g class="cls-3"><polygon class="cls-4" points="0.42 18.15 21.95 -0.98 22.26 -1.4 0.33 18.09 0.69 19.04 0.78 19.09 0.42 18.15"/></g></mask><linearGradient id="linear-gradient-9" x1="-40.98" y1="21.58" x2="-8.02" y2="21.58" gradientTransform="translate(36.53 -15.55) rotate(-8.92)" gradientUnits="userSpaceOnUse"><stop offset="0" stop-color="#fff"/><stop offset="1" stop-color="#fff"/></linearGradient><filter id="luminosity-noclip-8" x="0" y="17.27" width="29.94" height="12.47" filterUnits="userSpaceOnUse" color-interpolation-filters="sRGB"><feFlood flood-color="#fff" result="bg"/><feBlend in="SourceGraphic" in2="bg"/></filter><mask id="mask-8" x="0" y="17.27" width="29.94" height="12.47" maskUnits="userSpaceOnUse"><g class="cls-5"><path class="cls-6" d="M.35,18.29a.4.4,0,0,0,0,.08.39.39,0,0,0,.35.23l26.88.78a.86.86,0,0,1,.82.72l1.36,8.7a.39.39,0,0,1-.08.31v0a.32.32,0,0,0-.28-.19L2.3,28.16a.85.85,0,0,1-.82-.72L.16,19A.91.91,0,0,1,.35,18.29Zm.91-1-.92.82A1.06,1.06,0,0,0,0,19l1.32,8.44a1,1,0,0,0,1,.85L29.41,29a.18.18,0,0,1,.13.29l-.32.41.52-.46a.54.54,0,0,0,.18-.5l-1.36-8.7a1,1,0,0,0-1-.85L.73,18.46A.25.25,0,0,1,.54,18l.71-.78Z"/></g></mask><linearGradient id="linear-gradient-10" x1="-41.44" y1="35.28" x2="-13.39" y2="35.28" gradientTransform="translate(36.53 -15.55) rotate(-8.92)" gradientUnits="userSpaceOnUse"><stop offset="0"/><stop offset="0.91"/><stop offset="1"/></linearGradient><linearGradient id="linear-gradient-11" x1="-41.44" y1="35.28" x2="-13.39" y2="35.28" xlink:href="#linear-gradient-9"/><filter id="luminosity-noclip-10" x="0.73" y="18.46" width="26.88" height="9.01" filterUnits="userSpaceOnUse" color-interpolation-filters="sRGB"><feFlood flood-color="#fff" result="bg"/><feBlend in="SourceGraphic" in2="bg"/></filter><mask id="mask-10" x="0.73" y="18.46" width="26.88" height="9.01" maskUnits="userSpaceOnUse"><g class="cls-9"><polygon class="cls-10" points="27.6 19.23 1.34 27.46 0.73 18.46 27.6 19.23"/></g></mask><linearGradient id="linear-gradient-12" x1="-41.44" y1="32.55" x2="-14.21" y2="32.55" gradientTransform="translate(36.53 -15.55) rotate(-8.92)" gradientUnits="userSpaceOnUse"><stop offset="0" stop-color="#fff"/><stop offset="0.94" stop-color="#fff"/><stop offset="1" stop-color="#fff"/></linearGradient></defs><title>mobile logo2</title><g class="cls-11"><g id="Layer_2" data-name="Layer 2"><g id="Layer_2-2" data-name="Layer 2"><polygon class="cls-12" points="4.94 47.02 19.59 21.89 29.63 28.86 29.75 29.27 4.94 47.02"/><g class="cls-13"><polygon class="cls-14" points="19.67 21.95 29.63 28.86 29.63 28.86 19.59 21.89 4.94 47.02 5.11 46.86 19.67 21.95"/></g><polygon class="cls-15" points="4.94 47.02 25.14 25.75 29.63 28.86 29.75 29.27 4.94 47.02"/><polygon class="cls-16" points="29.63 28.86 29.55 28.8 29.67 29.21 5.23 46.63 4.94 47.02 29.75 29.27 29.63 28.86"/><polygon class="cls-17" points="29.63 28.86 19.59 21.89 15.98 30.13 21.29 30.86 28.28 30.57 29.75 29.27 29.63 28.86"/><polygon class="cls-18" points="30.85 0 10.49 25.39 0.69 19.04 0.33 18.09 30.85 0"/><polygon class="cls-16" points="30.66 0.17 10.41 25.33 0.69 19.03 0.69 19.04 10.49 25.39 30.85 0 30.66 0.17"/><polygon class="cls-15" points="30.85 0 5.19 21.68 0.69 19.04 0.33 18.09 30.85 0"/><g class="cls-19"><polygon class="cls-20" points="0.42 18.15 30.54 0.41 30.85 0 0.33 18.09 0.69 19.04 0.78 19.09 0.42 18.15"/></g><path class="cls-15" d="M29.93,28.77a.54.54,0,0,1-.18.5l-.52.46.32-.41a.18.18,0,0,0-.13-.29L2.3,28.31a1,1,0,0,1-1-.85L0,19a1.06,1.06,0,0,1,.32-.94l.92-.82L.54,18a.25.25,0,0,0,.18.41l26.88.78a1,1,0,0,1,1,.85Z"/><g class="cls-21"><g class="cls-22"><path class="cls-23" d="M.35,18.29a.4.4,0,0,0,0,.08.39.39,0,0,0,.35.23l26.88.78a.86.86,0,0,1,.82.72l1.36,8.7a.39.39,0,0,1-.08.31v0a.32.32,0,0,0-.28-.19L2.3,28.16a.85.85,0,0,1-.82-.72L.16,19A.91.91,0,0,1,.35,18.29Zm.91-1-.92.82A1.06,1.06,0,0,0,0,19l1.32,8.44a1,1,0,0,0,1,.85L29.41,29a.18.18,0,0,1,.13.29l-.32.41.52-.46a.54.54,0,0,0,.18-.5l-1.36-8.7a1,1,0,0,0-1-.85L.73,18.46A.25.25,0,0,1,.54,18l.71-.78Z"/></g></g><g class="cls-24"><g class="cls-22"><path class="cls-25" d="M.35,18.29a.4.4,0,0,0,0,.08.39.39,0,0,0,.35.23l26.88.78a.86.86,0,0,1,.82.72l1.36,8.7a.39.39,0,0,1-.08.31v0a.32.32,0,0,0-.28-.19L2.3,28.16a.85.85,0,0,1-.82-.72L.16,19A.91.91,0,0,1,.35,18.29Zm.91-1-.92.82A1.06,1.06,0,0,0,0,19l1.32,8.44a1,1,0,0,0,1,.85L29.41,29a.18.18,0,0,1,.13.29l-.32.41.52-.46a.54.54,0,0,0,.18-.5l-1.36-8.7a1,1,0,0,0-1-.85L.73,18.46A.25.25,0,0,1,.54,18l.71-.78Z"/></g></g><g class="cls-26"><polygon class="cls-27" points="27.6 19.23 1.34 27.46 0.73 18.46 27.6 19.23"/></g><path class="cls-28" d="M65.32,26.73H55.75l-4,10.11h-6l10-25.38H72.28l-1.86,4.72H59.89L57.6,22h9.57Z"/><path class="cls-28" d="M76.48,32.1H68.37l-3.29,4.74H58.51l19-25.38h5.61l-.88,25.38H76.05Zm-4.84-4.72h5.26l.8-8.75Z"/><path class="cls-28" d="M98.71,30q.82-2-1.46-3l-2.6-1.19q-5.42-2.7-4.11-7.36a8.35,8.35,0,0,1,2.3-3.79A11.69,11.69,0,0,1,97.13,12a15.24,15.24,0,0,1,5.37-.89,7.14,7.14,0,0,1,5.58,2.2q1.83,2.13,1,5.7h-5.93a3.21,3.21,0,0,0-.1-2.34,2.13,2.13,0,0,0-2-.91,5.37,5.37,0,0,0-2.8.7,3.83,3.83,0,0,0-1.79,2q-.71,1.74,2,2.86a22,22,0,0,1,3.82,1.92,5.64,5.64,0,0,1,2.43,6.73,8.83,8.83,0,0,1-2.26,3.85,11,11,0,0,1-4.09,2.56,14.55,14.55,0,0,1-5.26.87,11,11,0,0,1-3.68-.64,6.27,6.27,0,0,1-2.63-1.78q-2-2.35-1.08-6.19l6,0a3.72,3.72,0,0,0,.1,3q.63,1,2.66,1a5.07,5.07,0,0,0,2.65-.69A3.86,3.86,0,0,0,98.71,30Z"/><path class="cls-28" d="M131.56,16.18h-7.39l-8.1,20.66h-6l8.12-20.66h-7.27l1.87-4.72h20.61Z"/><path class="cls-28" d="M144.59,26.06h-9.33l-2.39,6.07h11l-1.85,4.71h-17l10-25.38h17l-1.86,4.72H139.14L137,21.53h9.34Z"/><path class="cls-28" d="M159,30q.82-2-1.46-3L155,25.73q-5.42-2.7-4.11-7.36a8.34,8.34,0,0,1,2.3-3.79A11.69,11.69,0,0,1,157.45,12a15.25,15.25,0,0,1,5.37-.89,7.14,7.14,0,0,1,5.58,2.2q1.83,2.13,1,5.7h-5.93a3.21,3.21,0,0,0-.1-2.34,2.14,2.14,0,0,0-2-.91,5.37,5.37,0,0,0-2.8.7,3.83,3.83,0,0,0-1.79,2q-.71,1.74,2,2.86a22.06,22.06,0,0,1,3.83,1.92A5.64,5.64,0,0,1,165,29.92a8.82,8.82,0,0,1-2.26,3.85,11,11,0,0,1-4.09,2.56,14.55,14.55,0,0,1-5.26.87,11,11,0,0,1-3.68-.64,6.27,6.27,0,0,1-2.63-1.78q-2-2.35-1.08-6.19l6,0a3.72,3.72,0,0,0,.1,3q.63,1,2.66,1a5.07,5.07,0,0,0,2.65-.69A3.86,3.86,0,0,0,159,30Z"/><path class="cls-28" d="M191.88,16.18h-7.39l-8.1,20.66h-6l8.12-20.66h-7.27l1.87-4.72h20.61Z"/><polygon class="cls-29" points="213.36 11.47 213.35 11.49 209.13 11.49 212.88 12.21 201.54 29.88 203.59 11.47 197.14 11.47 197.14 11.49 188.41 11.49 197.08 12.75 195.83 36.85 202.35 36.85 220.19 11.47 213.36 11.47"/><path class="cls-29" d="M234.68,24.38a10.63,10.63,0,0,0,2.61-4.44q1.12-3.74-.8-6.1t-6.15-2.35l-9.11,0-9.77,24.91-4,.57h9.7v-.1h0l3.39-8.63,4.18,0a15,15,0,0,0,5.47-1A12.29,12.29,0,0,0,234.68,24.38Zm-8.62-.82-3.58,0,2.88-7.34,4.16,0a2.22,2.22,0,0,1,1.62.69,2.18,2.18,0,0,1,.44,1.69,5.42,5.42,0,0,1-1.73,3.5A5.52,5.52,0,0,1,226.06,23.55Z"/><polygon class="cls-29" points="263.52 11.47 257.55 11.47 257.53 11.52 254.62 11.52 257.33 12.04 251.27 27.49 248.73 11.47 242.91 11.47 233.18 36.28 229.16 36.86 238.86 36.86 238.86 36.85 238.91 36.85 245.22 20.83 247.67 36.26 243.51 36.86 253.16 36.86 253.16 36.85 253.54 36.85 263.52 11.47"/><polygon class="cls-30" points="42.77 36.81 45.37 36.81 55.47 11.43 52.87 11.43 42.77 36.81"/><polygon class="cls-31" points="39.68 36.81 42.28 36.81 52.38 11.43 49.78 11.43 39.68 36.81"/></g></g></g></svg>