<svg width="303" height="105" viewBox="0 0 303 105" fill="none" xmlns="http://www.w3.org/2000/svg"><path fill-rule="evenodd" clip-rule="evenodd" d="M62.59 100.836 44.904 81.142l-1.93.954-.429-.954 1.643-.805L2.816 34.243c-4.913-5.466-3.232-11.289 3.75-13l85-20.874c6.974-1.715 10.955 2.717 8.888 9.888L75.23 97.741c-2.073 7.176-7.732 8.568-12.64 3.095ZM42.121 87.611a1.777 1.777 0 0 1 0-2.44c.642-.68 1.685-.68 2.341 0 .632.668.632 1.764 0 2.44-.656.668-1.7.668-2.341 0Zm1.81-.56c.36-.358.36-.962 0-1.338a.88.88 0 0 0-1.28 0c-.366.376-.366.98 0 1.338a.872.872 0 0 0 1.28 0ZM2.546 21.546l-.344-2.76.604-.08.344 2.753-.604.087Zm9.03-4.037a.876.876 0 0 1 0-1.208.795.795 0 0 1 1.157 0c.321.34.321.88 0 1.208a.792.792 0 0 1-1.156 0Zm.902-.937h-.637a.48.48 0 0 0 0 .663h.637a.485.485 0 0 0 0-.663Z" fill="#0ACCF9"/><path fill-rule="evenodd" clip-rule="evenodd" d="M77.07 92.671c-.331-.454-.463-1.107-.5-1.847l1.03.547.462-.978-1.528-.792c.008-.285.014-.562.014-.842a2.133 2.133 0 0 1-1.572-.702c-.88-.911-.88-2.412 0-3.333a2.37 2.37 0 0 1 .606-.458c-.278-.592-.578-1.157-.873-1.717l.71.6.648-.864-2.673-2.237a16.07 16.07 0 0 1-.543-1.228 1.31 1.31 0 0 1-1.723-.187c-.536-.546-.536-1.464 0-2.028.248-.267.585-.414.917-.416-.046-.287-.103-.587-.14-.882-.083-.632-.037-1.388.026-2.127l-1.286.474-.205-.65.688.412.854-1.587.072-.026c.004-.05.01-.092.01-.139l1.292-2.388-.906-.542-.52.976c-.128-.31-.376-.708-.69-1.158a2.485 2.485 0 0 0-.447-2.659 2.202 2.202 0 0 0-1.955-.662 25.054 25.054 0 0 1-.462-.726h.256v-4.76h-1.033v1.752c-.07-.4-.185-.797-.4-1.2-.93.992-.467 4.909-3.141 7.206-.638.546-.587 2.457-.894 3.19-.318.77-2.42 2.58-2.997 3.609-.846 1.504-2.061 3.59-3.593 4.801-1.372 1.075-3.356 3.805-5.036 5.46a2.168 2.168 0 0 0-2.138.627c-.867.908-.867 2.414 0 3.337a2.16 2.16 0 0 0 2.28.574c.624 1.264 1.342 2.42 1.62 2.87.05.086 1.542.256 1.792.35v.71c-1.124.156-2.681.605-3.696-.122a5.975 5.975 0 0 1-.152-.111.077.077 0 0 1 .04-.034 1.281 1.281 0 0 0 0-1.74 1.133 1.133 0 0 0-1.73.088c-.731-.844-1.5-1.867-2.085-2.895l-.12.094-.863-1.451 1.952-.917-.3-.724-2.06.958-1.656-2.755 1.062-.7 1.093 1.81c.043-.176.127-.337.225-.488.07-.101.148-.2.243-.296a.76.76 0 0 0 .198.338.783.783 0 0 0 1.146 0 .896.896 0 0 0 .006-1.203l.065-.036c-.417-.883-.282-1.998.418-2.737a2.194 2.194 0 0 1 1.733-.69c0 .49.165.977.515 1.334.693.726 1.82.726 2.515 0a1.959 1.959 0 0 0 0-2.656 1.748 1.748 0 0 0-1.308-.539l.1-.255-2.597-1.828.584-.91 2.407 1.705c.016-.051.046-.099.064-.162.41.412 1.068.396 1.475-.038.42-.44.42-1.153 0-1.604a1.004 1.004 0 0 0-.696-.32c.183-.436.39-.874.599-1.327l-1.247.856-.747-1.207L55.897 70c.136-.202.279-.403.434-.606.055-.089.19-.195.373-.325a.653.653 0 0 1-.118-.105c-.875-.923-.875-2.43 0-3.35a2.148 2.148 0 0 1 2.758-.34 30.487 30.487 0 0 1-.063-.775l.42.96.729-.362-1.468-3.346-.077.036-1.145-2.24.911-.513.799 1.57c.23-.863.497-1.763.75-2.666a1.61 1.61 0 0 1-.7-.447 1.89 1.89 0 0 1 0-2.562 1.666 1.666 0 0 1 1.546-.491c.037-.256.075-.498.108-.765a3.176 3.176 0 0 1-.268-.66 2.123 2.123 0 0 0 1.313-.667 2.453 2.453 0 0 0 0-3.357 2.45 2.45 0 0 0-.71-.5c.148-.333.302-.676.447-1.024a2.554 2.554 0 0 1-.57-1.326c-.036.157-.065.303-.098.444-.164.597-.494 1.166-.874 1.744-.5.043-.977.27-1.359.662a2.496 2.496 0 0 0-.495 2.555 4.228 4.228 0 0 0-.19.953c-.17 1.72.23 6.348-1.706 6.385a2.37 2.37 0 0 0-.657-1.664 2.09 2.09 0 0 0-1.772-.68c.054-.433.252-.902.519-1.358l-1.384.586-.394-1 2.062-.88c.062.14.154.274.255.39a1.33 1.33 0 0 0 1.936 0 1.498 1.498 0 0 0-.142-2.167c.065-.112.131-.226.16-.32.037-.135-.28-1.775-.226-2.363.066-.631.13-1.296.208-1.961l-.873 1.802-.92-.503 1.163-2.393 2.53.448.126-.792-2.294-.404.533-1.096.064.041c.051-.483.086-.955.108-1.41a1.65 1.65 0 0 1-.685-.444 1.884 1.884 0 0 1-.339-2.046c-1.042.1-2.098-.278-2.886-1.108-1.416-1.503-1.416-3.933 0-5.432 1.146-1.202 2.85-1.44 4.21-.72a2.493 2.493 0 0 1 .647-1.859c.244-.238.529-.428.824-.544.038.07.091.13.15.191a1.309 1.309 0 0 0 1.929 0c.531-.55.531-1.48 0-2.041a1.307 1.307 0 0 0-1.715-.176l-1.448-2.17.842-.628 1.182 1.762c.053-.112.09-.216.138-.321a.29.29 0 0 0 .085.096.775.775 0 0 0 1.142 0c.322-.325.322-.872 0-1.214a.791.791 0 0 0-.698-.244c-.755-.919-.716-2.321.11-3.19a2.183 2.183 0 0 1 2.157-.63c.078-.22.149-.43.212-.665.199-.745.24-1.117.232-1.898l-1.675 1.908-.759-.735 2.139-2.454c-.095-.257-.22-.542-.34-.835.371.026.744-.118 1.023-.414.54-.563.54-1.471 0-2.032a1.315 1.315 0 0 0-1.924 0c-.172.18-.292.39-.353.618a2.841 2.841 0 0 1-1.055-.698c-1.111-1.185-1.111-3.086 0-4.268.927-.967 2.322-1.134 3.41-.49.294-.141.617-.275.984-.393 1.823-.621 6.802 1.315 7.166 2.124.058.113-.537 2.577-.565 3.184-.028 1.1 1.09.51 1.02 2.608-1.587.095-.455 1.87-1.122 2.48-.583.531-2.739.147-3.586.356-.292.078-.447.646-.447 1.054-.019 2.594 3.09 5.27 3.81 9.226.353 1.977.63 3.239 1.118 5.189.393 1.591.124 3.884-.236 6.127 2.347 1.233 7.35 2.606 7.963 3.094 1.798 1.454 1.474 3.544-1.034 4.299-.02.01-.441 0-.45 0-.101-.08-.214-.147-.322-.221a1.713 1.713 0 0 0-.19-2.093 1.514 1.514 0 0 0-2.219 0 1.487 1.487 0 0 0-.298.444 3.79 3.79 0 0 1-.634-.65 1.342 1.342 0 0 0-.244-.234l-2.437.162-.033-.65 1.152-.064c-.614-.183-1.284-.342-1.802-.54-.054.433-.09.84-.111 1.2-1.464 3.595 2.866 13.206 4.03 16.775 1.114 3.431 2.756 11.028 3.023 14.65.343 4.692.103 9.984 4.15 11.94.868.42 3.04.155 3.923 1.067.109.521-.205.93-.342 1.42-.499.693-9 .225-9.399-.36Z" fill="#0B3754"/><path d="M148.241 70.036V33.908h-7.352v14.184h-16.196V33.908h-7.282v36.128h7.282V54.874h16.196v15.162h7.352Zm6.729 0h7.293V33.909h-7.293v36.127Z" fill="#fff"/><path fill-rule="evenodd" clip-rule="evenodd" d="M189.943 68.744c-2.227.861-4.684 1.29-7.384 1.292h-13.515V33.908h13.515c2.7.008 5.157.435 7.384 1.297 2.214.85 4.137 2.072 5.746 3.657 1.623 1.599 2.862 3.494 3.738 5.715.878 2.218 1.323 4.696 1.347 7.428-.024 2.724-.469 5.197-1.347 7.407-.876 2.212-2.115 4.108-3.738 5.692-1.609 1.587-3.532 2.803-5.746 3.64ZM176.34 63.27h6.219c1.704-.02 3.215-.314 4.55-.9a9.99 9.99 0 0 0 3.377-2.425 11.089 11.089 0 0 0 2.104-3.606c.471-1.347.711-2.796.724-4.334-.013-2.157-.407-4.08-1.226-5.782a9.461 9.461 0 0 0-3.605-4.04c-1.591-.977-3.561-1.489-5.924-1.508h-6.219V63.27Z" fill="#fff"/><path d="M230.188 70.036V63.27h-16.953V55.1h16.597v-6.78h-16.597v-7.645h16.953v-6.767h-24.255v36.128h24.255Z" fill="#fff"/><path d="M129.837 82.428a.98.98 0 0 1-.997-.996c0-.288.097-.526.291-.714a.963.963 0 0 1 .706-.292.97.97 0 0 1 .714.292.935.935 0 0 1 .301.714c0 .276-.1.51-.301.705a.97.97 0 0 1-.714.291Zm.752 12.069h-1.542v-9.625h1.542v9.625Zm-12.339-.348v-1.654c.84.62 1.764.93 2.773.93 1.354 0 2.031-.45 2.031-1.353 0-.257-.06-.473-.179-.649a1.621 1.621 0 0 0-.47-.48 3.283 3.283 0 0 0-.695-.366 27.23 27.23 0 0 0-.856-.347c-.426-.17-.802-.339-1.128-.508a3.734 3.734 0 0 1-.809-.583 2.302 2.302 0 0 1-.488-.742 2.669 2.669 0 0 1-.16-.968c0-.451.103-.85.31-1.194.207-.35.483-.642.827-.874a3.811 3.811 0 0 1 1.175-.536 5.294 5.294 0 0 1 1.373-.178c.834 0 1.579.144 2.237.432v1.56c-.708-.463-1.523-.695-2.444-.695-.288 0-.548.034-.78.103a1.893 1.893 0 0 0-.602.273 1.331 1.331 0 0 0-.385.432 1.129 1.129 0 0 0-.132.545c0 .25.044.46.132.63.094.169.229.32.404.451.176.132.389.25.639.357.251.107.536.223.856.348.426.163.808.332 1.147.507.338.17.626.364.865.583.238.213.419.46.545.743.131.282.197.617.197 1.005 0 .477-.106.89-.319 1.241-.207.35-.486.642-.837.874a3.85 3.85 0 0 1-1.213.517c-.457.113-.937.17-1.438.17-.99 0-1.849-.192-2.576-.574Z" fill="#fff"/><path d="M160.554 90.07h6.797v-.808c0-1.448-.345-2.579-1.035-3.394-.689-.814-1.663-1.221-2.923-1.221s-2.316.473-3.168 1.419c-.846.94-1.269 2.158-1.269 3.656 0 1.585.388 2.817 1.165 3.694.777.87 1.846 1.306 3.206 1.306 1.391 0 2.51-.307 3.356-.92v-1.448c-.909.714-1.905 1.071-2.989 1.071-.966 0-1.724-.291-2.275-.874-.552-.583-.84-1.41-.865-2.481Zm4.569-3.384c.426.495.642 1.188.648 2.077h-5.198c.119-.84.432-1.52.94-2.04a2.49 2.49 0 0 1 1.852-.78c.752 0 1.338.248 1.758.743Z" fill="#fff"/><path d="M184.742 84.553c0-.414-.066-.774-.197-1.081a2.025 2.025 0 0 0-.527-.762 2.075 2.075 0 0 0-.78-.46c-.301-.1-.627-.15-.978-.15-.301 0-.595.04-.883.122a4.416 4.416 0 0 0-.847.338 5.526 5.526 0 0 0-.789.517 5.84 5.84 0 0 0-.705.667V82.09a4.55 4.55 0 0 1 1.447-.959c.539-.225 1.194-.338 1.965-.338a4.65 4.65 0 0 1 1.533.244c.47.157.877.389 1.222.696.344.307.614.686.808 1.137.201.451.301.968.301 1.551 0 .533-.063 1.015-.188 1.447-.119.433-.304.84-.555 1.222a5.731 5.731 0 0 1-.93 1.1c-.376.35-.818.708-1.326 1.072-.633.45-1.156.836-1.57 1.156-.407.32-.733.62-.978.902a2.647 2.647 0 0 0-.507.836 2.97 2.97 0 0 0-.141.959h6.712v1.382h-8.32v-.668c0-.576.063-1.084.188-1.522.126-.439.332-.856.621-1.25.288-.395.664-.79 1.128-1.185.47-.394 1.043-.84 1.72-1.334.489-.351.896-.686 1.222-1.006.333-.32.599-.64.799-.959.201-.32.342-.642.423-.968.088-.332.132-.683.132-1.052Z" fill="#fff"/><path fill-rule="evenodd" clip-rule="evenodd" d="M199.177 90.7c.207-.871.31-1.87.31-2.999 0-4.605-1.413-6.908-4.239-6.908-.734 0-1.386.157-1.956.47-.564.307-1.037.767-1.419 1.382-.383.607-.674 1.362-.875 2.265-.194.902-.291 1.942-.291 3.12 0 1.072.094 2.024.282 2.858.188.827.464 1.525.827 2.096.364.57.809 1.005 1.335 1.306.533.294 1.138.442 1.814.442.715 0 1.351-.154 1.909-.46.564-.314 1.037-.769 1.419-1.364.389-.601.684-1.338.884-2.209Zm-4.005-8.6c1.824 0 2.736 1.917 2.736 5.752 0 3.71-.931 5.564-2.792 5.564-1.887 0-2.83-1.82-2.83-5.461 0-3.904.962-5.856 2.886-5.856Z" fill="#fff"/><path d="M209.118 94.497h-1.541V82.85c-.119.12-.295.257-.527.414-.225.15-.482.3-.771.451-.282.15-.582.291-.902.423a6.392 6.392 0 0 1-.921.31v-1.56a9.35 9.35 0 0 0 1.071-.376 13.89 13.89 0 0 0 2.163-1.156c.325-.22.607-.432.846-.64h.582v13.78Zm12.668-11.025c.132.307.198.667.198 1.08 0 .37-.044.721-.132 1.053a3.38 3.38 0 0 1-.423.968c-.201.32-.467.64-.799.959-.326.32-.733.655-1.222 1.006-.677.495-1.251.94-1.721 1.334-.464.395-.84.79-1.128 1.185a3.95 3.95 0 0 0-.62 1.25c-.126.438-.188.946-.188 1.522v.668h8.32v-1.382h-6.713c0-.363.047-.683.141-.959.101-.282.27-.56.508-.836.244-.282.57-.583.978-.902.413-.32.937-.705 1.57-1.157.507-.363.949-.72 1.325-1.071.376-.35.686-.718.931-1.1.25-.382.435-.79.554-1.222a5.16 5.16 0 0 0 .188-1.447c0-.583-.1-1.1-.3-1.55a3.193 3.193 0 0 0-.809-1.138 3.458 3.458 0 0 0-1.222-.696 4.65 4.65 0 0 0-1.532-.244c-.771 0-1.426.113-1.965.338a4.562 4.562 0 0 0-1.448.959v1.654c.219-.244.455-.467.705-.667.257-.2.52-.373.79-.517.276-.144.558-.257.846-.338.288-.082.583-.123.884-.123.351 0 .677.05.977.15.301.101.561.255.781.461.225.2.401.455.526.762Z" fill="#fff"/></svg>