<svg fill="none" height="16" viewBox="0 0 109 16" width="109" xmlns="http://www.w3.org/2000/svg"><g fill="#6fbc44"><path d="m28.5848 16-5.1707-15.9024353h4.878l1.6585 6.8292653c.3903 1.65854.8781 3.60977 1.1708 5.46347h.0975c.2927-1.8537.683-3.80493 1.0732-5.56103l1.561-6.7317053h4.878l-5.2683 15.8048353z"/><path d="m43.7995 12.3905-.9756 3.6097h-4.2927l4.9757-15.804872h5.3658l4.4878 15.804872h-4.2927l-.9756-3.6097zm3.7074-2.43907-.7805-3.31708c-.1951-.97561-.5854-2.53658-.7805-3.60975h-.0976c-.1951 1.07317-.5853 2.7317-.7805 3.60975l-.878 3.31708z"/><path d="m55.7031 16.0001v-15.9024285h4.0976l3.5122 6.2438985c.6829 1.2683 1.7561 3.21952 2.439 4.58533h.0976c-.0976-1.6585-.4878-4.3902-.4878-7.31703v-3.5121985h3.9024v15.8049285h-4.0976l-3.5122-5.95127c-.7804-1.36585-1.7561-3.31707-2.3414-4.78049h-.0976c.0976 1.56098.2927 4 .2927 7.21956v3.5122z"/><path d="m77.6597.0976715v15.8049285h-4.4878v-15.8049285z"/><path d="m81.1673 12.7805c.878.3902 2.439.5854 3.8049.5854 2.1463 0 3.1219-.7805 3.1219-1.7561 0-1.1708-.9756-1.75613-2.9268-2.53661-3.122-1.2683-4.2927-3.02439-4.2927-4.39025 0-2.53658 2.439-4.68292474 7.2195-4.68292474 1.4634 0 2.9269.29268374 3.6098.58536674l-.6829 2.634148c-.683-.29269-1.6586-.58537-2.9269-.58537-1.8536 0-2.8292.78049-2.8292 1.65854 0 .97561.6829 1.46341 3.1219 2.43902 3.0244 1.2683 4.0976 2.82927 4.0976 4.48778 0 2.9269-3.122 4.7805-7.6098 4.7805-1.8536 0-3.6097-.2927-4.3902-.6829z"/><path d="m99.4175.0976715v6.3414685h4.6825v-6.3414685h4.488v15.8049285h-4.488v-6.6342h-4.6825v6.6342h-4.4878v-15.8049285z"/></g><path d="m4.39024.09758v15.80492h-4.39024v-15.80492z" fill="#000"/><path d="m8.09375.390263c1.26829-.195122 2.92685-.292683 4.68295-.292683 2.6341 0 4.6829.292683 6.2439 1.26829 1.3658.78049 1.9512 2.14634 1.9512 3.5122 0 1.7561-.7805 2.92683-1.9512 3.80488-1.4634 1.07317-3.7073 1.46345-5.561 1.46345-.2927 0-.5854 0-.878 0v5.8536h-4.48785zm4.39025 7.121957h.6829c2.2439 0 3.2195-1.07318 3.2195-2.53659 0-1.36585-.7805-2.43903-2.9268-2.43903-.3902 0-.7805.00001-1.0732.09757v4.87805z" fill="#000"/></svg>