<svg viewBox="0 0 164 37" fill="none" xmlns="http://www.w3.org/2000/svg"><path fill-rule="evenodd" clip-rule="evenodd" d="M23.31 9.777c1.653.012 2.983 1.432 2.97 3.172a3.18 3.18 0 0 1-1.464 2.68l.024 3.641c-.006.884-.692 1.595-1.532 1.589-.839-.007-1.515-.728-1.508-1.611l-.025-3.604c-.892-.551-1.49-1.572-1.481-2.74.012-1.739 1.363-3.139 3.016-3.127Zm-.96 18.644a1.545 1.545 0 0 0 1.325 0c2.164-1.026 9.226-4.921 9.226-11.99V14.34c-2.042-3.378-5.603-5.616-9.657-5.616-.123 0-.246.003-.368.007a10.607 10.607 0 0 0-.368-.007c-3.881 0-7.308 2.056-9.385 5.196v2.513c0 2.766 1.085 5.345 3.224 7.666 2.106 2.285 4.665 3.69 6.002 4.323Z" fill="#9C56B8"/><mask id="a" style="mask-type:luminance" maskUnits="userSpaceOnUse" x="0" y="14" width="46" height="23"><path fill-rule="evenodd" clip-rule="evenodd" d="M0 14.614h45.752v22.007H0V14.614Z" fill="#fff"/></mask><g mask="url(#a)"><path fill-rule="evenodd" clip-rule="evenodd" d="M40.084 19.14c-.314-2.554-2.364-4.526-4.848-4.526-.2 0-.396.016-.59.041v1.777c0 8.103-7.829 12.442-10.228 13.579a3.26 3.26 0 0 1-1.406.317c-.489 0-.962-.107-1.406-.317-1.452-.688-4.232-2.216-6.538-4.718-2.449-2.656-3.69-5.637-3.69-8.861V14.7a4.599 4.599 0 0 0-.861-.087c-2.484 0-4.534 1.972-4.848 4.526C2.437 19.823 0 22.858 0 26.5c0 13.495 45.752 13.495 45.752 0 0-3.642-2.436-6.677-5.669-7.36Z" fill="#fff"/></g><path fill-rule="evenodd" clip-rule="evenodd" d="M35.957 20.778c.695-.664 1.83-1.012 3.126-1.242l-.02-.006c-.246-1.995-1.623-3.595-3.42-4.086.935 1.559 1.147 3.342.314 5.334ZM9.79 20.778c-.696-.664-1.83-1.012-3.126-1.242l.02-.006c.245-1.995 1.623-3.595 3.42-4.086-.935 1.559-1.147 3.342-.314 5.334Z" fill="#E0DBE3"/><path fill-rule="evenodd" clip-rule="evenodd" d="m21.8 19.248-.024-3.604c-.893-.551-1.491-1.572-1.482-2.74.012-1.739 1.363-3.139 3.016-3.127 1.653.012 2.983 1.432 2.97 3.172a3.181 3.181 0 0 1-1.464 2.68l.024 3.641c-.006.884-.692 1.595-1.532 1.589-.839-.007-1.515-.728-1.508-1.611ZM32.9 16.43V6.479c0-.53-.373-.995-.888-1.106L23.79 3.597a3.683 3.683 0 0 0-1.558 0l-8.222 1.775a1.136 1.136 0 0 0-.888 1.106v9.954a10.388 10.388 0 0 0 .203 2.038c.405 2.001 1.417 3.887 3.021 5.628 2.106 2.284 4.665 3.689 6.003 4.323.42.2.904.2 1.325 0C25.839 27.395 32.9 23.5 32.9 16.43Z" fill="#fff"/><mask id="b" style="mask-type:luminance" maskUnits="userSpaceOnUse" x="9" y="0" width="28" height="33"><path fill-rule="evenodd" clip-rule="evenodd" d="M9.632 0h26.76v32.085H9.632V0Z" fill="#fff"/></mask><g mask="url(#b)"><path fill-rule="evenodd" clip-rule="evenodd" d="M34.647 16.432c0 8.103-7.83 12.442-10.23 13.579-.443.21-.916.317-1.405.317a3.26 3.26 0 0 1-1.406-.317c-1.452-.688-4.232-2.216-6.538-4.718-2.449-2.656-3.69-5.637-3.69-8.861V6.478a2.9 2.9 0 0 1 2.268-2.824l8.222-1.775a5.451 5.451 0 0 1 2.289 0l8.221 1.775a2.9 2.9 0 0 1 2.269 2.824v9.954ZM32.744 1.936 24.522.162a7.193 7.193 0 0 0-3.02 0L13.28 1.936c-2.114.456-3.648 2.367-3.648 4.543v9.953c0 3.682 1.399 7.065 4.156 10.057 2.507 2.718 5.509 4.37 7.075 5.112a5.053 5.053 0 0 0 2.149.484c.737 0 1.48-.168 2.15-.484 2.634-1.249 11.23-6.031 11.23-15.169V6.479c0-2.177-1.535-4.087-3.648-4.543Z" fill="#fff"/></g><path fill-rule="evenodd" clip-rule="evenodd" d="m24.816 15.63.024 3.64c-.006.883-.692 1.595-1.532 1.588-.839-.006-1.514-.727-1.508-1.61l-.024-3.605c-.893-.55-1.49-1.571-1.482-2.739.012-1.74 1.363-3.14 3.016-3.127 1.653.012 2.983 1.432 2.97 3.171a3.181 3.181 0 0 1-1.464 2.681ZM32.013 5.37 23.79 3.597a3.694 3.694 0 0 0-1.558 0l-8.222 1.774a1.136 1.136 0 0 0-.888 1.107v9.953c0 2.767 1.085 5.346 3.224 7.667 2.106 2.284 4.665 3.689 6.003 4.323.42.2.904.2 1.325 0C25.839 27.395 32.9 23.5 32.9 16.43V6.478c0-.53-.373-.996-.888-1.107Z" fill="#F7F1DA"/><path fill-rule="evenodd" clip-rule="evenodd" d="M54.087 13.119v5.329h4.251c.834 0 1.52-.21 2.053-.63.534-.42.801-1.098.801-2.034 0-.937-.267-1.615-.8-2.035-.535-.42-1.22-.63-2.054-.63h-4.251Zm0 12.71h-1.751v-14.41h6.014c.74 0 1.397.107 1.966.322.57.215 1.05.516 1.442.904.391.388.686.849.886 1.382a5 5 0 0 1 .299 1.756 5 5 0 0 1-.3 1.757c-.199.533-.494.994-.885 1.382-.391.387-.872.689-1.442.904-.57.214-1.225.322-1.966.322h-4.264v5.681ZM73.837 20.126h-1.75v-.788c0-.829-.227-1.51-.678-2.041-.451-.533-1.087-.8-1.908-.8a2.797 2.797 0 0 0-1.99.81c-.246.249-.438.542-.574.88a2.93 2.93 0 0 0-.205 1.11v6.531H64.98V15.15h1.689v1.161a3.82 3.82 0 0 1 1.328-1.047 3.989 3.989 0 0 1 1.761-.383c.645 0 1.222.11 1.73.332.508.221.937.532 1.287.933.35.4.615.877.793 1.43a5.91 5.91 0 0 1 .268 1.825v.725Z" fill="#fff"/><mask id="c" style="mask-type:luminance" maskUnits="userSpaceOnUse" x="0" y="0" width="164" height="37"><path fill-rule="evenodd" clip-rule="evenodd" d="M0 36.621h164V0H0v36.621Z" fill="#fff"/></mask><g mask="url(#c)" fill-rule="evenodd" clip-rule="evenodd"><path d="M76.061 25.829h1.75V15.15h-1.75v10.678Zm0-12.296h1.75V11.44h-1.75v2.095ZM85.267 25.829h-1.874L79.542 15.15h1.853l2.945 8.5 2.925-8.5h1.854l-3.852 10.678ZM98.962 20.51c0-.537-.096-1.047-.288-1.53a4.07 4.07 0 0 0-.783-1.262 3.73 3.73 0 0 0-1.143-.847 3.188 3.188 0 0 0-1.39-.31c-.494 0-.96.103-1.4.31-.44.207-.817.49-1.133.847a4.122 4.122 0 0 0-.752 1.262 4.244 4.244 0 0 0-.278 1.53 4.076 4.076 0 0 0 1.03 2.74c.316.352.693.631 1.133.838.44.207.906.31 1.4.31.494 0 .958-.103 1.39-.31a3.792 3.792 0 0 0 1.143-.838 3.997 3.997 0 0 0 1.071-2.74Zm1.751 5.318h-1.689v-1.723c-.37.553-.878 1.024-1.524 1.412a4.087 4.087 0 0 1-2.141.582c-.77 0-1.477-.146-2.122-.436a5.13 5.13 0 0 1-1.678-1.206 5.669 5.669 0 0 1-1.112-1.785 5.89 5.89 0 0 1-.402-2.182c0-.776.134-1.506.401-2.191a5.513 5.513 0 0 1 1.113-1.787 5.329 5.329 0 0 1 1.678-1.204 5 5 0 0 1 2.122-.448c.782 0 1.496.195 2.141.583.646.388 1.154.851 1.524 1.391v-1.703h1.689v10.697ZM112.637 21.578c0 .664-.11 1.268-.329 1.815a4.237 4.237 0 0 1-.927 1.42 4.17 4.17 0 0 1-1.421.933 4.747 4.747 0 0 1-1.792.332c-.645 0-1.243-.11-1.791-.333a4.17 4.17 0 0 1-1.422-.934 4.393 4.393 0 0 1-.937-1.424 4.715 4.715 0 0 1-.34-1.817V12.85h1.751v2.28h7.146v1.701h-7.146v4.748c0 .402.065.774.194 1.12a2.5 2.5 0 0 0 .562.892c.245.248.535.442.869.58.334.138.705.207 1.114.207.818 0 1.475-.262 1.973-.787.497-.526.746-1.196.746-2.012v-.974h1.75v.974ZM123.285 19.381a4.125 4.125 0 0 0-1.298-2.104 3.417 3.417 0 0 0-.998-.59 3.136 3.136 0 0 0-2.225-.011c-.363.13-.7.321-1.008.57a4.04 4.04 0 0 0-.824.912c-.241.36-.416.767-.526 1.223h6.879Zm1.689 3.13c-.371 1.148-.989 2.029-1.854 2.643-.865.616-1.915.923-3.151.923a5.254 5.254 0 0 1-2.142-.435 5.477 5.477 0 0 1-1.72-1.182 5.524 5.524 0 0 1-1.153-1.763 5.675 5.675 0 0 1-.422-2.197 5.7 5.7 0 0 1 .422-2.188 5.703 5.703 0 0 1 1.143-1.783 5.482 5.482 0 0 1 1.689-1.202 4.906 4.906 0 0 1 2.08-.446c.686 0 1.352.138 1.998.415a5.198 5.198 0 0 1 1.72 1.202 5.833 5.833 0 0 1 1.194 1.908c.295.746.443 1.596.443 2.55h-8.918c.055.553.196 1.047.422 1.482.227.436.508.806.845 1.11a3.577 3.577 0 0 0 2.399.933c.755 0 1.397-.173 1.926-.519.528-.345.937-.829 1.225-1.45h1.854Z" fill="#fff"/><path d="M133.541 25.829h-2.925l-4.696-14.39h2.884l3.274 11.093 3.254-11.093h2.883l-4.674 14.39ZM142.335 13.99v4.188h3.274c.632 0 1.126-.166 1.484-.498.356-.332.535-.863.535-1.596 0-.733-.179-1.265-.535-1.596-.358-.332-.852-.499-1.484-.499h-3.274Zm8.011 2.094c0 .663-.11 1.279-.329 1.845a4.193 4.193 0 0 1-.938 1.462 4.25 4.25 0 0 1-1.472.954 5.17 5.17 0 0 1-1.915.341h-3.357v5.143h-2.719v-14.39h6.014c.741 0 1.407.111 1.998.332.59.221 1.084.532 1.482.933.398.4.704.889.917 1.462.213.573.319 1.213.319 1.918ZM164 25.829h-3.275l-5.828-10.243V25.83h-2.718v-14.39h3.282l5.82 10.243V11.44H164v14.39Z" fill="#F7F1DA"/></g></svg>